<?xml version="1.0" encoding="utf-8"?>
<!-- Generator: Adobe Illustrator 25.0.0, SVG Export Plug-In . SVG Version: 6.00 Build 0)  -->
<svg version="1.1" id="Layer_1" xmlns="http://www.w3.org/2000/svg" xmlns:xlink="http://www.w3.org/1999/xlink" x="0px" y="0px"
	 viewBox="0 0 2000 176.6" style="enable-background:new 0 0 2000 176.6;" xml:space="preserve">
<style type="text/css">
	.st0{fill:#FFFFFF;}
</style>
<g id="Layer_2_1_">
	<g id="new">
		<path class="st0" d="M1111.4,173l-1.7,2h142l10.7-50.2l-2.7,2.5c-24,22.3-45.5,30.7-79,30.7h-24.9V30.5c0-13.6,2.4-20.6,9.4-27.7
			l2-2H1111l2,2c6.6,6.6,9.4,14.9,9.4,27.7v104.2C1122.5,158.4,1117.3,166.3,1111.4,173z"/>
		<path class="st0" d="M720.3,173l-2,2h57.8l-2-2c-7.7-7.7-10.2-14.4-10.2-39.1V30.5c0-8.3,1.3-18.9,11.8-27.6l2.5-2.1h-47.9
			l-67.7,133.7L595.2,1.4l-0.3-0.6h-48.5l2.2,2c10,9.2,11.8,16.5,11.8,27.6v104.3c0,26.4-6,32.4-11.9,38.3l-2,2h44.2l-2.3-2.1
			c-6.9-6.1-10.2-11.9-10.2-38.2V37.9l68.6,136.4l0.3,0.6h14.5l68.9-134.7v93.6C730.5,158.5,728,165.3,720.3,173z"/>
		<path class="st0" d="M74.1,2.9c11.8,9.4,11.8,22.2,11.8,35.7v83.9c0,13.9-4.3,37.1-33,37.1c-20,0-33-11.5-50.5-29L0,128.2
			l4.6,39.9l0.7,0.2c15.9,5.4,32.5,8.2,49.2,8.2c42.3,0,64.7-18.7,64.7-54.1V38.6c0-13.5,0-26.3,11.8-35.7l2.6-2.1H71.5L74.1,2.9z"
			/>
		<path class="st0" d="M307.3,0c-55.4,0-97.2,37.6-97.2,87.5c0,54.1,37.5,89.1,95.6,89.1c57.2,0,95.6-35.8,95.6-89.1
			C401.3,36,362.7,0,307.3,0z M306.5,159.6c-35.8,0-59.9-29-59.9-72.1c0-42.8,23.5-70.5,59.9-70.5c35.4,0,58.2,27.7,58.2,70.5
			C364.8,130.6,341.4,159.6,306.5,159.6z"/>
		<path class="st0" d="M1997.4,130.6c-24.6,23-45.9,27.4-76.5,27.4h-29.8V91.1h61.5l6.6-17h-68.1V17.8h27.3c28.8,0,41.9,0,70.1,24.1
			l2.5,2.2l-8.1-43.3h-137.1l1.8,2c6.8,7.6,10.3,15.2,10.3,35.9v98.5c0,16.7-0.9,25.8-9.5,35.9l-1.6,1.9H1991l9-46.8L1997.4,130.6z"
			/>
		<path class="st0" d="M1419.5,0c-55.4,0-97.2,37.6-97.2,87.5c0,54.1,37.5,89.1,95.6,89.1c57.2,0,95.6-35.8,95.6-89.1
			C1513.5,36,1474.8,0,1419.5,0z M1418.6,159.6c-36.4,0-59.9-28.3-59.9-72.1c0-42.8,23.5-70.5,59.9-70.5c35.4,0,58.3,27.7,58.3,70.5
			C1476.9,130.6,1453.5,159.6,1418.6,159.6z"/>
		<path class="st0" d="M1728.1,2.8c8.2,8.2,11.8,15.4,11.8,36.6v88.9L1628,1.2l-0.3-0.4h-42.4l2,2c12.2,12.2,14.3,20.9,14.3,35.8
			v96.9c0,19.3-4.4,27.5-13.5,37.5l-1.8,2h46.9l-1.8-2c-8.2-9-11.9-16.5-11.9-37.5V36.9l119.3,137.7l0.3,0.4h18.8V39.4
			c0-20.8,4.2-28.9,11.9-36.6l2-2H1726L1728.1,2.8z"/>
		<path class="st0" d="M1016.6,136.7l-61-135.2l-0.3-0.7h-23.5L872,130.1c-9.3,20.1-19.8,35.3-29.8,42.7l-2.8,2.1h53.4l-1.7-2
			c-6.9-7.7-7.1-20.3-0.6-35.4l5.4-12.3h79.9l6.2,14c5,11.5,4.5,22.6-1.6,34l-0.9,1.7h64.8l-2.7-2.1
			C1030.6,164.4,1022.5,149.1,1016.6,136.7z M905,104.2l30.8-70.8l30.8,70.8H905z"/>
	</g>
</g>
</svg>
