<?xml version="1.0" encoding="utf-8"?>
<!-- Generator: Adobe Illustrator 25.2.3, SVG Export Plug-In . SVG Version: 6.00 Build 0)  -->
<svg version="1.1" id="Layer_1" xmlns="http://www.w3.org/2000/svg" xmlns:xlink="http://www.w3.org/1999/xlink" x="0px" y="0px"
	 viewBox="0 0 29.9 30.6" style="enable-background:new 0 0 29.9 30.6;" xml:space="preserve">
<style type="text/css">
	.st0{fill:#EDDFCD;}
</style>
<ellipse class="st0" cx="14.7" cy="21.1" rx="7.1" ry="8.5"/>
<ellipse transform="matrix(0.9447 -0.328 0.328 0.9447 -7.0781 4.6344)" class="st0" cx="10.2" cy="23.3" rx="5.1" ry="6.4"/>
<ellipse transform="matrix(0.328 -0.9447 0.9447 0.328 -9.2527 33.6252)" class="st0" cx="19" cy="23.3" rx="6.4" ry="5.1"/>
<ellipse transform="matrix(0.9917 -0.1283 0.1283 0.9917 -0.5938 1.3776)" class="st0" cx="10.4" cy="5.3" rx="3" ry="4.4"/>
<ellipse transform="matrix(0.9462 -0.3235 0.3235 0.9462 -3.6257 1.9634)" class="st0" cx="4.1" cy="11.9" rx="3" ry="4.4"/>
<ellipse transform="matrix(0.1283 -0.9917 0.9917 0.1283 11.2472 23.4594)" class="st0" cx="19" cy="5.3" rx="4.4" ry="3"/>
<ellipse transform="matrix(0.3235 -0.9462 0.9462 0.3235 5.9635 32.1903)" class="st0" cx="25.5" cy="11.9" rx="4.4" ry="3"/>
</svg>
