<?xml version="1.0" encoding="utf-8"?>
<!-- Generator: Adobe Illustrator 25.2.3, SVG Export Plug-In . SVG Version: 6.00 Build 0)  -->
<svg version="1.1" id="레이어_1" xmlns="http://www.w3.org/2000/svg" xmlns:xlink="http://www.w3.org/1999/xlink" x="0px"
	 y="0px" viewBox="0 0 500 478.5" style="enable-background:new 0 0 500 478.5;" xml:space="preserve">
<style type="text/css">
	.st0{fill:#EDDFCD;}
</style>
<polygon class="st0" points="171.7,429.8 65.4,429.8 65.4,324.8 82,324.8 82,413.2 171.7,413.2 "/>
<path class="st0" d="M439.5,234.2h-16.6v-68.5c0-82.2-76.4-149.2-170.4-149.2c-52.8,0-101.8,20.9-134.3,57.4L105.7,63
	c35.7-40,89.2-63,146.7-63c103.1,0,187,74.4,187,165.8V234.2z"/>
<g>
	<path class="st0" d="M60.5,210.9c-36.8,0-59.7-16.2-59.7-42.4V98.3h16.6v70.3c0,23.9,32.9,25.8,43,25.8s43-1.8,43-25.4V98.3h16.6
		v70.6C120.1,194.8,97.3,210.9,60.5,210.9z"/>
	<rect x="9.1" y="131.9" class="st0" width="102.7" height="16.6"/>
	<rect x="136.5" y="127.2" class="st0" width="37.8" height="16.6"/>
	<rect x="136.5" y="161.6" class="st0" width="37.8" height="16.6"/>
	<rect x="166" y="98.3" class="st0" width="16.6" height="107.3"/>
	<rect x="343.3" y="124.8" class="st0" width="16.6" height="143.1"/>
	<path class="st0" d="M173.6,297.7h-56.9c-6.7,0-17.9-3-17.9-23.2c0-7.5,1.3-12.7,4.2-16.6c2.1-2.9,6.1-6.4,13.3-6.4h46.2
		c0.9,0,2.2,0,2.9-0.1c0.2-0.7,0.7-2.4,0.7-6c0-4.4-0.8-6.2-1.1-6.5c-0.1,0-0.6-0.3-2.7-0.3h-55.1V222h55.1
		c13.4,0,20.4,8.1,20.4,23.4c0,5.8-0.7,14.2-6.8,19.1c-4.5,3.6-9.7,3.6-13.4,3.6h-46.2c0,0,0,0-0.1,0c-0.3,0.8-0.8,2.6-0.8,6.4
		c0,4.1,0.6,5.9,0.8,6.5c0.1,0,0.3,0,0.5,0h56.9V297.7z"/>
	<polygon class="st0" points="213.9,358 203.2,345.3 263.9,294.2 263.9,278.6 280.5,278.6 280.5,301.9 	"/>
	<rect x="263.9" y="351.7" class="st0" width="16.6" height="29.9"/>
	<rect x="203.3" y="375.2" class="st0" width="137.9" height="16.6"/>
	<path class="st0" d="M272.2,478.5c-20.1,0-36.4-16.3-36.4-36.4v-1c0-20.1,16.3-36.4,36.4-36.4s36.4,16.3,36.4,36.4v1
		C308.6,462.2,292.3,478.5,272.2,478.5z M272.2,421.4c-10.9,0-19.8,8.9-19.8,19.8v1c0,10.9,8.9,19.8,19.8,19.8s19.8-8.9,19.8-19.8
		v-1C292,430.3,283.1,421.4,272.2,421.4z"/>
	
		<rect x="295.8" y="283.2" transform="matrix(0.6444 -0.7647 0.7647 0.6444 -140.28 348.0335)" class="st0" width="16.6" height="83.2"/>
	<polygon class="st0" points="372.7,358 362,345.3 422.7,294.2 422.7,278.6 439.3,278.6 439.3,301.9 	"/>
	<rect x="422.7" y="351.7" class="st0" width="16.6" height="29.9"/>
	<rect x="362" y="375.2" class="st0" width="137.9" height="16.6"/>
	<path class="st0" d="M431,478.5c-20.1,0-36.4-16.3-36.4-36.4v-1c0-20.1,16.3-36.4,36.4-36.4s36.4,16.3,36.4,36.4v1
		C467.4,462.2,451.1,478.5,431,478.5z M431,421.4c-10.9,0-19.8,8.9-19.8,19.8v1c0,10.9,8.9,19.8,19.8,19.8
		c10.9,0,19.8-8.9,19.8-19.8v-1C450.8,430.3,441.9,421.4,431,421.4z"/>
	
		<rect x="454.5" y="283.2" transform="matrix(0.6444 -0.7647 0.7647 0.6444 -83.8233 469.4356)" class="st0" width="16.6" height="83.2"/>
	<path class="st0" d="M255.1,257.1c-33.9,0-61.4-27.6-61.4-61.4s27.6-61.4,61.4-61.4s61.4,27.6,61.4,61.4S289,257.1,255.1,257.1z
		 M255.1,150.9c-24.7,0-44.8,20.1-44.8,44.8s20.1,44.8,44.8,44.8s44.8-20.1,44.8-44.8C299.9,171,279.8,150.9,255.1,150.9z"/>
</g>
<circle class="st0" cx="386.2" cy="60.3" r="19"/>
<circle class="st0" cx="304.1" cy="51" r="3.2"/>
<circle class="st0" cx="117.6" cy="347.7" r="3.9"/>
<circle class="st0" cx="327.8" cy="87.3" r="8"/>
<path class="st0" d="M266.5,94.9l-7.7-2c-0.6-0.2-1.3,0-1.8,0.3l-6.5,4.6c-1.4,1-3.4,0.1-3.5-1.7l-0.5-7.9c0-0.7-0.4-1.2-0.9-1.6
	l-6.4-4.7c-1.4-1-1.1-3.2,0.5-3.8l7.4-2.9c0.6-0.2,1.1-0.7,1.3-1.3l2.6-7.5c0.6-1.6,2.7-2,3.8-0.7l5.1,6.1c0.4,0.5,1,0.8,1.7,0.8
	l7.9,0.1c1.7,0,2.8,1.9,1.8,3.4l-4.3,6.7c-0.4,0.6-0.4,1.2-0.2,1.8l2.4,7.6C269.7,93.8,268.2,95.4,266.5,94.9z"/>
<path class="st0" d="M151.4,385.6L148,381c-0.3-0.4-0.7-0.6-1.2-0.6l-5.7-0.3c-1.2-0.1-1.9-1.5-1.2-2.5l3.3-4.7
	c0.3-0.4,0.4-0.9,0.2-1.3l-1.4-5.5c-0.3-1.2,0.8-2.3,2-1.9l5.5,1.7c0.4,0.1,0.9,0.1,1.3-0.2l4.8-3.1c1.1-0.7,2.4,0.1,2.4,1.3
	l0.1,5.7c0,0.5,0.2,0.9,0.6,1.2l4.4,3.6c1,0.8,0.7,2.3-0.5,2.7l-5.4,1.9c-0.4,0.1-0.8,0.5-1,0.9l-2.1,5.3
	C153.7,386.4,152.1,386.6,151.4,385.6z"/>
</svg>
