<?xml version="1.0" encoding="utf-8"?>
<!-- Generator: Adobe Illustrator 25.2.3, SVG Export Plug-In . SVG Version: 6.00 Build 0)  -->
<svg version="1.1" id="레이어_1" xmlns="http://www.w3.org/2000/svg" xmlns:xlink="http://www.w3.org/1999/xlink" x="0px"
	 y="0px" viewBox="0 0 1343 443.7" style="enable-background:new 0 0 1343 443.7;" xml:space="preserve">
<style type="text/css">
	.st0{fill:none;stroke:#EDDFCD;stroke-width:7;stroke-miterlimit:10;}
	.st1{fill:#EDDFCD;}
</style>
<path class="st0" d="M938.1,142.2c0,0,26.9-20.6,36.6-14c9.9,6.7-12.8,48-12.8,48"/>
<path class="st1" d="M621.5,159.7c0,0,28-12.6,12.3-70C617.1,28.6,515.4-26.7,435.6,47c-59.4,54.9-37.6,122.1-50.5,155.3
	s-66.2,70.2-77.5,114.7s22.2,103.8,57.9,142.1c0,0,7.2-21,23.5-95.3c10.4-47.6,17.3-60.2,35-70c10-5.6,18.7-10,42.2-0.9l16.2-68.6
	c0,0-0.1-6.5-5-7.6c-15.7-3.5-37.4-13.9-32.7-33.2c2.3-9.6,11.7-17.2,26.8-9.6c0,0,63.3-31.6,107.7-90.8
	C579.3,83.1,597.7,118.3,621.5,159.7z"/>
<path class="st0" d="M618.9,147.1c6.8,67.8-26.4,111.6-70.3,111.6c-26.4,0-55.9-16.6-71.2-42"/>
<ellipse transform="matrix(0.2253 -0.9743 0.9743 0.2253 246.4004 657.5009)" class="st1" cx="536.6" cy="173.8" rx="13.9" ry="11"/>
<ellipse transform="matrix(0.2253 -0.9743 0.9743 0.2253 290.1787 717.222)" class="st1" cx="596.1" cy="176.1" rx="13.9" ry="9.1"/>
<path class="st0" d="M574.6,164.7c0,0-3.9,21.8,9.9,35.2"/>
<path class="st0" d="M530.3,213.2c0,0,7.5,20.1,32.2,19.2"/>
<path class="st0" d="M588.7,133.6c0,0,14.6-8.2,28.8,3.3"/>
<path class="st0" d="M557.9,130.7c0,0-15.1-7.4-35.8,3.1"/>
<path class="st0" d="M480.8,218.2c-14.4,0.6-42.1-13.4-35.9-34.8c2.1-7,7.8-11.3,12.4-12.4c7.6-1.9,14.4,2.9,14.4,2.9
	c65-34.7,107.7-90.8,107.7-90.8s31.6,62.4,43.8,70.9"/>
<path class="st0" d="M530.3,256.2l-16.3,43c0,0,19.3,39.6-5,40.1c-17.6,0.4-32-13.8-42.7-46.4l16.5-70"/>
<g>
	<polygon class="st0" points="537.8,453.5 693.4,404.5 740.6,463.1 	"/>
	<path class="st0" d="M702,418.7c0,0,15.1-14.7,30.9-27.5c15.8-12.9,32.2-23.3,37.1-17.8c4.9,5.4-19.3,23.3-19.3,23.3
		s28.2-24.7,34.1-16.3c5.9,8.4-27.2,25.2-27.2,25.2s23.2-13.9,27.9-8.9S765,414.5,765,414.5s20.7-8.7,25.7-2.7
		c5,5.9-56.4,41.8-56.4,41.8"/>
</g>
<path class="st0" d="M597.2,434.2c0,0-35.5-89.9-83.1-135.1"/>
<path class="st0" d="M466.3,292.9c0,0-45.8-16.3-62.1,22.6c-16.3,38.9-35.1,138-35.1,138"/>
<path class="st0" d="M422.3,459.9c0,0-16.7-64.8-20.9-96.6s2.6-67.5,33.6-72.6c36.9-6.1,48.8,39.1,63.2,92.6s21,76.5,21,76.5"/>
<rect x="797.8" y="422.8" class="st1" width="325.3" height="20.9"/>
<rect x="995.2" y="274.5" transform="matrix(0.1753 -0.9845 0.9845 0.1753 665.7814 1355.5354)" class="st1" width="293.6" height="11.8"/>
<path class="st0" d="M922.7,136.8c-19.9-4-48.9-5.1-65.9,22.5s-16.5,41.6-7.7,53.7c12.5,17.4,35.8,24.3,59,22.4
	c23.2-1.9,51.9-12.6,53.5-39.1C963.9,160.5,948.4,142,922.7,136.8z"/>
<path class="st0" d="M871.3,143.7c0,0,12.5-29.9,22.5-34.9s12.5,1.9,16.3,28.1"/>
<ellipse transform="matrix(0.3024 -0.9532 0.9532 0.3024 448.4005 956.6717)" class="st1" cx="877.8" cy="172" rx="9.6" ry="6.4"/>
<ellipse transform="matrix(0.3024 -0.9532 0.9532 0.3024 472.657 996.2177)" class="st1" cx="916.9" cy="175.2" rx="9.6" ry="6.4"/>
<polygon class="st1" points="889.5,188.9 887.2,184.5 884.9,180.1 896.7,180.5 893.1,185.4 "/>
<g>
	<path class="st0" d="M929,183.6c0,0,26.1-6.5,51.9,0"/>
	<path class="st0" d="M929,194.4c0,0,29.9,2.3,48.3,5"/>
	<path class="st0" d="M857.7,175.2c0,0-13.2-4.8-30.1-3.1"/>
	<path class="st0" d="M857.7,187.9c0,0-29.8-0.8-36.8,2.1"/>
</g>
<polyline class="st0" points="883,194.4 890.2,189 896.2,194.4 "/>
<path class="st0" d="M877.7,232.3c0,0-19.7,66.3-6.4,123.1c11.7,49.8,11.7,49.8,11.7,49.8s-13.4,6.3-5.2,17.6
	c8.2,11.3,37.9,4.4,37.9,4.4s60.2,5.6,73.6-2.7s45.3-30.5,25.1-93.7c-11.3-35.2-39.9-42.8-65.7-109.6"/>
<path class="st0" d="M906.4,339.1l3.8,65.7c0,0-13.4,15.5,5.4,22.4c18.4,6.7,24.7-2.3,24.7-2.3l3.2-85.7"/>
<path class="st0" d="M1020.2,357.5c0,0,31.9-28.5,27.9-64.4c-4.6-41.4-14.6-51.1-21.3-74.9c-6.7-23.8,6.2-55.9,41.8-53.5
	c18.4,1.3,24.3,5.7,23.8,11.4c-0.4,5.7-8.8,10.9-23,8.3c-14.2-2.6-29.3,3.3-23.8,29.6s21.3,42.2,21.7,86.6
	c0.3,33.9-21.4,62-47.2,83.7"/>
<path class="st0" d="M578.4,89c0,0-9.8,58.1-90.4,83.4"/>
<rect x="1198.4" y="331.9" class="st0" width="89" height="108.3"/>
<path class="st0" d="M1287.4,345.3c22.3,0,40.3,18,40.3,40.3s-18,40.3-40.3,40.3"/>
<path class="st0" d="M1287.4,369c9.2,0,16.6,7.4,16.6,16.6s-7.4,16.6-16.6,16.6"/>
<path class="st0" d="M1249.1,263.1c0,0-12.3,2.6-12.3,12.6s12.3,13.7,12.3,21.5c0,7.9-12.3,13.2-12.3,13.2"/>
<rect x="177.1" y="156.6" class="st0" width="85.9" height="100.3"/>
<rect x="18.2" y="277.3" class="st0" width="104.9" height="122.4"/>
<rect x="61.9" y="253" transform="matrix(0.1532 -0.9882 0.9882 0.1532 -210.7423 302.13)" class="st1" width="18.1" height="42"/>
<circle class="st1" cx="220" cy="154.3" r="12"/>
<rect x="33.4" y="291.7" class="st1" width="74.4" height="76.7"/>
<rect x="190.9" y="169.8" class="st1" width="58.3" height="59.3"/>
<line class="st0" x1="814.8" y1="135.3" x2="676.2" y2="81.9"/>
<line class="st0" x1="820.5" y1="221.2" x2="667.6" y2="259.8"/>
<polygon class="st1" points="702,150.6 708.6,162.7 720.7,169.3 708.6,175.9 702,188 695.4,175.9 683.3,169.3 695.4,162.7 "/>
<polygon class="st1" points="753.1,186.4 757.5,194.5 765.5,198.9 757.5,203.3 753.1,211.3 748.7,203.3 740.6,198.9 748.7,194.5 "/>
<polygon class="st1" points="777.1,146.7 780.1,152.1 785.5,155 780.1,158 777.1,163.4 774.1,158 768.7,155 774.1,152.1 "/>
</svg>
